<?xml version="1.0" encoding="UTF-8" standalone="no"?>
<!DOCTYPE svg PUBLIC "-//W3C//DTD SVG 1.1//EN" "http://www.w3.org/Graphics/SVG/1.1/DTD/svg11.dtd">
<svg width="100%" height="100%" viewBox="0 0 428 428" version="1.1" xmlns="http://www.w3.org/2000/svg" xmlns:xlink="http://www.w3.org/1999/xlink" xml:space="preserve" xmlns:serif="http://www.serif.com/" style="fill-rule:evenodd;clip-rule:evenodd;stroke-linejoin:round;stroke-miterlimit:2;">
    <g transform="matrix(1,0,0,1,-86.2777,-84.8597)">
        <g transform="matrix(0.906491,0,0,0.906491,-9.09393,28.1896)">
            <path d="M576.747,100.239C576.747,79.419 559.844,62.516 539.024,62.516L142.933,62.516C122.113,62.516 105.21,79.419 105.21,100.239L105.21,496.33C105.21,517.15 122.113,534.053 142.933,534.053L539.024,534.053C559.844,534.053 576.747,517.15 576.747,496.33L576.747,100.239Z" style="fill:url(#_Linear1);"/>
        </g>
        <g transform="matrix(410.519,0,0,410.519,152.37,440.8)">
            <path d="M0.686,-0.222L0.672,-0L0.034,-0L0.034,-0.038C0.045,-0.039 0.058,-0.041 0.074,-0.043C0.089,-0.045 0.099,-0.047 0.104,-0.049C0.116,-0.053 0.124,-0.06 0.128,-0.068C0.133,-0.076 0.135,-0.086 0.135,-0.099L0.135,-0.588C0.135,-0.6 0.133,-0.609 0.13,-0.617C0.126,-0.625 0.118,-0.632 0.104,-0.638C0.094,-0.642 0.082,-0.646 0.068,-0.649C0.053,-0.651 0.042,-0.653 0.034,-0.655L0.034,-0.693L0.414,-0.693L0.414,-0.655C0.404,-0.654 0.391,-0.652 0.377,-0.651C0.363,-0.649 0.351,-0.646 0.34,-0.643C0.328,-0.639 0.319,-0.632 0.315,-0.623C0.311,-0.614 0.309,-0.604 0.309,-0.593L0.309,-0.137C0.309,-0.116 0.31,-0.099 0.313,-0.086C0.316,-0.074 0.322,-0.065 0.33,-0.059C0.339,-0.053 0.35,-0.049 0.365,-0.047C0.381,-0.045 0.402,-0.044 0.428,-0.044C0.454,-0.044 0.48,-0.046 0.504,-0.049C0.529,-0.052 0.546,-0.059 0.557,-0.069C0.574,-0.086 0.591,-0.109 0.608,-0.139C0.626,-0.17 0.639,-0.197 0.65,-0.222L0.686,-0.222Z" style="fill:url(#_Radial2);fill-rule:nonzero;"/>
        </g>
    </g>
    <defs>
        <linearGradient id="_Linear1" x1="0" y1="0" x2="1" y2="0" gradientUnits="userSpaceOnUse" gradientTransform="matrix(397.527,-396.126,396.126,397.527,89.2301,552.276)"><stop offset="0" style="stop-color:rgb(49,32,154);stop-opacity:1"/><stop offset="1" style="stop-color:rgb(68,32,160);stop-opacity:1"/></linearGradient>
        <radialGradient id="_Radial2" cx="0" cy="0" r="1" gradientUnits="userSpaceOnUse" gradientTransform="matrix(0.651855,0,0,0.692871,0.0336914,-0.346436)"><stop offset="0" style="stop-color:rgb(146,253,255);stop-opacity:1"/><stop offset="0" style="stop-color:rgb(171,96,255);stop-opacity:1"/><stop offset="0.04" style="stop-color:rgb(206,95,255);stop-opacity:1"/><stop offset="0.08" style="stop-color:rgb(239,94,255);stop-opacity:1"/><stop offset="0.2" style="stop-color:rgb(253,93,255);stop-opacity:1"/><stop offset="0.51" style="stop-color:rgb(255,121,220);stop-opacity:1"/><stop offset="0.73" style="stop-color:rgb(255,120,168);stop-opacity:1"/><stop offset="1" style="stop-color:rgb(255,137,98);stop-opacity:1"/></radialGradient>
    </defs>
</svg>
